<svg width="186" height="119" viewBox="0 0 186 119" fill="none" xmlns="http://www.w3.org/2000/svg"><path d="M185.2 68.226l-68 25.9 1.3 24.5 65.6-27.5 1.1-22.9z" fill="#4363C9"/><path d="M185.2 68.226l-71.3-4.8-23.8-1.5L0 90.226l117.2 3.9 68-25.9z" fill="#7DA9EF"/><path d="M5.2 111.926l113.3 6.7-1.3-24.5L0 90.226l5.2 21.7z" fill="#567BD6"/><path d="M28.2 91.126l23.6 1.1 5.1 22.8-21-1.3-7.7-22.6z" fill="#D7A41B"/><path d="M28.2 91.126l85.7-27.7 19.9 1.4-82 27.4-23.6-1.1z" fill="#F4C544"/><path d="M150.6 81.726l-1.4 24 14.7-6.1 1.6-23.9-14.9 6z" fill="#D7A41B"/><path d="M165.5 75.726l-104.6-4.7-17 5.4 106.7 5.3 14.9-6z" fill="#F4C544"/><path d="M26 43.726s26.6 30.8 58.6 31.9c7.4-.8 10.8-3 10.8-3l-46.3-30c2.3-10 7.3-19.1 14.6-26.3 3-3-.2-8-4.2-6.4l-13.3 5.3-13.6 13.3-6.6 15.2z" fill="#D7A41B"/><path d="M92.1 74.826L66 27.926c-.5-1-1.5-1.6-2.6-1.8-3.3-.5-10.9-1-19.9 2.6-12.2 4.8-17.5 14.9-17.5 14.9l6.6-15.3c1.9-4.4 4.6-8.3 8.1-11.5 6.5-6.1 14.5-10.1 23.2-11.6l7.8-1.4c3.2-.6 6.4 1.3 7.4 4.5l20 62-7 4.5z" fill="#F4C544"/><path d="M157.3 29.726s-19.5 35.7-50.6 43.5c-7.4.8-11.2-.6-11.2-.6l39-39.1c-4.3-9.3-11.2-17.1-19.8-22.6-3.6-2.3-1.4-7.9 2.8-7.2l14 2.3 16.1 10.1 9.7 13.6z" fill="#D7A41B"/><path d="M99.2 74.026l15.6-51.3c.3-1.1 1.1-1.9 2.2-2.3 3.1-1.2 10.4-3.2 20-1.6 13 2.2 20.2 10.9 20.2 10.9l-9.7-13.6c-2.8-3.9-6.3-7.1-10.3-9.6-7.5-4.5-16.2-6.8-25-6.5l-7.9.3c-3.3.1-6 2.7-6.3 5.9l-6.5 64.8 7.7 3z" fill="#F4C544"/></svg>