<svg width="176" height="146" viewBox="0 0 176 146" fill="none" xmlns="http://www.w3.org/2000/svg"><path d="M.319 16.826l83.3-16.8 92.3 13.7-72.7 18.1-102.9-15z" fill="#567BD6"/><path d="M83.619.026l2.4 107.8 80.2 13.7 9.7-107.8-92.3-13.7z" fill="#2B4EA5"/><path d="M103.219 145.326l-90.8-21.1-12.1-107.4 102.9 15v113.5z" fill="#4363C9"/><path d="M103.219 31.826l72.7-18.1-9.7 107.8-63 23.8v-113.5z" fill="#567BD6"/><path d="M128.519 135.726l15.5-5.8 12.3-111.4-16 4.1-11.8 113.1zm-87.6-4.9l-11.7-109.8 19.7 2.9 8.2 110.6-16.2-3.7z" fill="#D7A41B"/></svg>