<svg width="363" height="123" viewBox="0 0 363 123" fill="none" xmlns="http://www.w3.org/2000/svg"><path d="M282.056 46.725l12.538-8.767-2.636-3.77-12.538 8.768 2.636 3.77zm28.534 2.372l12.538-8.767-2.636-3.77-12.538 8.767 2.636 3.77zm.668-33.219l6.013-14.07L313.041 0l-6.013 14.07 4.23 1.808zm-27.657.919l3.519-14.89L282.643.85l-3.519 14.89 4.477 1.058zm.107 56.809l15.174-1.957-.588-4.562-15.175 1.957.589 4.562zm64.775-29.586l13.949-6.287-1.89-4.194-13.949 6.287 1.89 4.194zm-14.595-24.818l11.718-9.838-2.957-3.523-11.719 9.837 2.958 3.524zM328.503 93.8l15.237-1.39-.418-4.58-15.237 1.39.418 4.58zm-.89-25.776l15.087-2.541-.764-4.536-15.087 2.541.764 4.536zm-36.836 30.29l14.189-5.723-1.721-4.266-14.189 5.723 1.721 4.266zm-72.2-20.51l10.297-11.318-3.402-3.096-10.297 11.318 3.402 3.096zm26.046-10.515l10.818-10.819-3.252-3.252-10.819 10.818 3.253 3.253zm-116.369-7.622l11.827 9.706 2.918-3.556-11.827-9.706-2.918 3.556zm70.922 3.806l-3.143 14.974 4.502.945 3.143-14.974-4.502-.945zm-29.786-3.387l4.116 14.735 4.43-1.237-4.116-14.736-4.43 1.238zM15.947 70.868L1.054 67.363 0 71.84l14.893 3.505 1.054-4.477zM41.33 33.84L30.513 23.02l-3.253 3.253 10.82 10.819 3.252-3.253zm-1.203 21.94l-13.629-6.953-2.09 4.097 13.629 6.954 2.09-4.098zm8.518 40.882l-14.848-3.686-1.108 4.465 14.848 3.686 1.108-4.465zm11.304-79.764L52.879 1l-4.843 2.153 7.07 15.899 4.843-2.154zm23.743 53.858L71.154 61.99l-2.636 3.77 12.538 8.767 2.636-3.77zm-23.338 4.739l-14.586-4.622-1.39 4.385 14.586 4.623 1.39-4.386zM71.51 46.929L61.331 35.506l-3.434 3.06 10.179 11.423 3.434-3.06zm24.1-3.433l-7.65-13.25-3.983 2.3 7.65 13.25 3.984-2.3zm.313 50.032l-14.924 3.375 1.015 4.487 14.924-3.375-1.015-4.487zm-24.308 21.404l-14.924 3.375 1.015 4.487 14.924-3.375-1.015-4.487z" fill="#F4C544"/></svg>