<svg width="220" height="46" viewBox="0 0 220 46" fill="none" xmlns="http://www.w3.org/2000/svg"><path d="M59.175 45.463c-9.508.06-17.674-5.79-21.086-14.017-1.707-4.144 1.28-8.654 5.79-8.654 2.498 0 4.874 1.463 5.788 3.84 1.524 3.717 5.241 6.337 9.568 6.277 5.546-.122 9.934-4.754 9.934-10.3V6.277A6.268 6.268 0 0175.446 0a6.268 6.268 0 016.277 6.277v16.271c0 12.494-9.995 22.854-22.548 22.915zm51.434 0c-12.493 0-22.67-10.178-22.67-22.67C87.94 10.298 98.116.121 110.61.121c12.798 0 22.671 10.42 22.671 22.67 0 12.493-10.177 22.67-22.671 22.67zm0-32.848c-5.606 0-10.177 4.57-10.177 10.177 0 5.607 4.571 10.117 10.177 10.117 5.607 0 10.178-4.571 10.178-10.178 0-5.606-4.632-10.116-10.178-10.116zm65.696-10.543a6.253 6.253 0 00-8.837 0L155.95 13.59 144.371 2.011a6.252 6.252 0 00-8.836 0 6.252 6.252 0 000 8.837l14.138 14.138v14.2a6.268 6.268 0 006.277 6.277 6.268 6.268 0 006.277-6.277V25.047l14.139-14.138c2.376-2.438 2.376-6.4-.061-8.837zM12.98 15.175a2.055 2.055 0 01-2.071-2.073V2.255c0-1.158.914-2.072 2.072-2.072s2.072.914 2.072 2.072v10.848c0 1.157-.975 2.072-2.072 2.072zm-10.908 0A2.055 2.055 0 010 13.102V2.255C0 1.097.914.183 2.072.183s2.072.914 2.072 2.072v10.848a2.055 2.055 0 01-2.072 2.072z" fill="#FDC500"/><path d="M12.432 5.607H2.194V9.75h10.238V5.607zm41.623 7.495a2.055 2.055 0 01-2.072 2.072 2.055 2.055 0 01-2.072-2.072c0-1.157.914-2.072 2.072-2.072s2.072.915 2.072 2.072zm-2.072-3.107a2.055 2.055 0 01-2.072-2.073V2.255c0-1.158.914-2.072 2.072-2.072s2.072.914 2.072 2.072v5.667a2.055 2.055 0 01-2.072 2.073zm-20.11-2.56C31.75 3.352 28.277.06 24.133.183c-3.9.183-7.07 3.29-7.191 7.191-.183 4.266 3.23 7.8 7.496 7.8 1.523 0 2.986-.487 4.205-1.28 1.218-.792 1.157-2.62 0-3.412a2.016 2.016 0 00-2.316 0c-.549.366-1.219.61-1.89.61-1.401 0-2.62-.915-3.107-2.134h9.14a1.527 1.527 0 001.403-1.523zm-7.74-3.108c1.34-.122 2.56.61 3.169 1.706h-5.85a3.614 3.614 0 012.68-1.706zm15.723 6.155L33.09 3.717c-.792-.792-.792-2.133 0-2.925.793-.792 2.133-.792 2.926 0l3.839 3.84 3.84-3.84C44.486 0 45.827 0 46.62.792c.792.792.792 2.133 0 2.925l-6.765 6.765z" fill="#FDC500"/><path d="M39.856 15.175a2.055 2.055 0 01-2.072-2.073V7.557c0-1.158.914-2.072 2.072-2.072s2.072.914 2.072 2.072v5.545a2.055 2.055 0 01-2.072 2.072zm155.828-7.07a3.824 3.824 0 003.84-3.84 3.824 3.824 0 00-3.84-3.838 3.823 3.823 0 00-3.839 3.839c0 2.072 1.706 3.84 3.839 3.84zm0-5.606c.975 0 1.707.792 1.707 1.706 0 .975-.793 1.706-1.707 1.706a1.703 1.703 0 01-1.706-1.706c0-.914.792-1.706 1.706-1.706zm6.521 2.133v2.437c0 .61.488 1.036 1.036 1.036.609 0 1.036-.487 1.036-1.036V4.632l2.438-2.438a1.068 1.068 0 000-1.524 1.067 1.067 0 00-1.524 0l-1.95 1.95-1.95-1.95a1.067 1.067 0 00-1.524 0 1.068 1.068 0 000 1.524l2.438 2.438zM187.396 2.56v4.387c0 .67.488 1.097 1.097 1.097.61 0 1.097-.487 1.097-1.097V2.56h1.158c.609 0 1.036-.426 1.036-1.036 0-.609-.427-1.036-1.036-1.036h-4.571c-.609 0-1.036.427-1.036 1.036 0 .61.427 1.036 1.036 1.036h1.219zm1.402 11.883l-.792-.365c-.427-.183-.488-.244-.488-.366 0-.061 0-.244.427-.244.304 0 .487.122.67.244.061.06.122.06.122.122.183.122.365.183.609.183.488 0 1.036-.427 1.036-1.036 0-.244-.061-.488-.244-.67-.243-.245-.914-.915-2.132-.854-1.524 0-2.682.975-2.682 2.255 0 .975.61 1.706 1.889 2.316l.732.304c.487.244.609.305.609.488 0 .122 0 .305-.548.305-.549 0-.915-.305-1.097-.488l-.122-.122a.984.984 0 00-.549-.183c-.487 0-.975.366-1.036 1.036 0 .305.122.61.427.915.548.487 1.462.853 2.316.853 1.645 0 2.803-.975 2.803-2.377 0-1.036-.61-1.767-1.95-2.316zm7.496-2.864h-4.571c-.609 0-1.036.426-1.036 1.036 0 .61.427 1.036 1.036 1.036h1.158v4.388c0 .67.487 1.097 1.097 1.097.609 0 1.097-.488 1.097-1.097V13.65h1.158c.609 0 1.036-.427 1.036-1.036.061-.61-.366-1.036-.975-1.036zm4.875-.122c-2.255 0-3.961 1.706-3.961 3.84 0 2.132 1.767 3.839 3.961 3.839 2.255 0 4.022-1.707 4.022-3.84s-1.828-3.84-4.022-3.84zm0 5.607c-1.036 0-1.706-.67-1.706-1.768 0-1.036.67-1.767 1.706-1.767s1.706.731 1.706 1.767-.731 1.768-1.706 1.768zm9.629-.914c.548-.488.853-1.158.853-1.95 0-1.524-1.219-2.621-2.925-2.621h-1.829c-.67 0-1.096.487-1.096 1.097v5.302c0 .67.487 1.097 1.096 1.097.61 0 1.097-.488 1.097-1.097V16.82h.671l1.158 1.767c.243.366.548.549.975.549.548 0 1.036-.488 1.036-1.036 0-.244-.122-.549-.305-.793l-.731-1.157zm-1.402-1.95c0 .365-.244.609-.67.609h-.732v-1.28h.732c.426.061.67.305.67.67zm6.582-2.743c-2.011.061-3.596 1.706-3.657 3.656-.061 2.194 1.646 3.962 3.84 3.962a3.7 3.7 0 002.133-.67 1.083 1.083 0 000-1.768c-.366-.244-.854-.244-1.158 0-.305.183-.61.305-.975.305-.732 0-1.341-.488-1.585-1.097h4.693a.704.704 0 00.731-.732c-.122-2.072-1.889-3.717-4.022-3.656zm-1.341 2.986c.305-.487.792-.853 1.341-.853.67-.061 1.341.305 1.645.853h-2.986z" fill="#FDC500"/></svg>