<svg width="26" height="26" viewBox="0 0 26 26" fill="none" xmlns="http://www.w3.org/2000/svg"><path d="M13 0C5.82 0 0 5.82 0 13s5.82 13 13 13 13-5.82 13-13S20.18 0 13 0zm6.865 18.968l-1.04 1.042c-.187.185-.73.301-.748.301a12.284 12.284 0 01-8.793-3.595 12.3 12.3 0 01-3.597-8.823s.12-.53.305-.714l1.041-1.04c.381-.383 1.113-.556 1.625-.385l.22.073c.51.172 1.047.737 1.188 1.257l.523 1.922c.142.522-.049 1.265-.43 1.646l-.694.695a7.383 7.383 0 005.19 5.192l.695-.695c.383-.383 1.125-.573 1.646-.432l1.922.525c.52.144 1.085.677 1.257 1.188l.073.222c.17.51-.002 1.242-.383 1.621z" fill="#F4C544"/></svg>