<svg width="151" height="151" viewBox="0 0 151 151" fill="none" xmlns="http://www.w3.org/2000/svg"><g clip-path="url(#clip0)"><path d="M75.475 150.33c41.512 0 75.165-33.653 75.165-75.165C150.64 33.652 116.987 0 75.475 0 33.962 0 .31 33.653.31 75.165c0 41.512 33.652 75.165 75.165 75.165z" fill="#F6D738"/><path d="M75.475 138.966c35.236 0 63.801-28.564 63.801-63.801s-28.565-63.802-63.801-63.802c-35.237 0-63.802 28.565-63.802 63.802 0 35.237 28.565 63.801 63.802 63.801z" fill="#F4C544"/><path d="M108.855 20.715a63.563 63.563 0 0110.037 34.35c0 35.228-28.55 63.802-63.801 63.802a63.554 63.554 0 01-33.38-9.422c11.34 17.708 31.178 29.427 53.763 29.427 35.227 0 63.802-28.551 63.802-63.778 0-23.011-12.169-43.158-30.421-54.38z" fill="#EBBC34"/><path d="M22.847 81.012c0-31.107 25.213-56.32 56.32-56.32 18.182 0 34.352 8.617 44.65 21.993-9.73-16.88-27.96-28.267-48.84-28.267-31.107 0-56.32 25.213-56.32 56.32 0 12.927 4.356 24.835 11.671 34.328a56.058 56.058 0 01-7.48-28.054z" fill="#F7DB5E"/><path d="M90.388 80.08c-.022 3.74-1.416 6.91-4.147 9.47-2.48 2.328-5.486 3.499-8.876 3.488-3.751-.022-6.966-1.411-9.533-4.156-2.359-2.526-3.532-5.544-3.489-8.989.077-7.053 5.815-12.838 13.088-12.838 7.142-.01 13.044 5.927 12.957 13.024zm-13.033 5.85c3.148.065 5.924-2.537 5.935-5.829a5.893 5.893 0 00-5.837-5.938c-3.28-.043-5.979 2.57-6 5.862-.023 3.247 2.621 5.926 5.902 5.905zm-16.72-10.465v4.724c0 .328-.044.656-.055.984a9.195 9.195 0 01-.296 1.826c-.153.602-.373 1.203-.581 1.794-.22.634-.527 1.224-.867 1.793-.351.59-.735 1.17-1.196 1.695-.307.35-.603.7-.932 1.028a13.046 13.046 0 01-2.15 1.728 12.15 12.15 0 01-2.447 1.213c-1.02.361-2.063.646-3.149.711-.427.033-.855.077-1.283.088-.34.01-.68-.011-1.01-.044-.394-.033-.778-.098-1.162-.142-1.196-.164-2.337-.536-3.423-1.039a11.868 11.868 0 01-2.008-1.17 13.516 13.516 0 01-3.51-3.718c-.384-.623-.736-1.258-.999-1.936-.504-1.29-.274-2.8.746-3.827.56-.558 1.207-.93 1.986-1.017 1.086-.131 2.084.098 2.93.853.394.36.701.776.92 1.269.527 1.213 1.34 2.186 2.502 2.854a5.77 5.77 0 002.82.798c.932.022 1.82-.142 2.654-.547a5.604 5.604 0 001.449-.973 6.006 6.006 0 001.404-1.903c.329-.7.526-1.432.56-2.209.032-.722.043-1.432.043-2.154.011-2.559.011-5.118 0-7.677 0-.568.132-1.104.395-1.596a3.512 3.512 0 011.646-1.542c.57-.262 1.184-.383 1.81-.306.768.087 1.48.339 2.03.907.175.186.372.361.526.558a3.4 3.4 0 01.67 2.067c-.023 1.63-.023 3.27-.023 4.91zm39.341 10.202c0-1.323-.01-2.646 0-3.958a.78.78 0 00-.263-.624l-7.603-7.578a9.07 9.07 0 01-.614-.667c-.33-.404-.527-.864-.647-1.367a3.505 3.505 0 01.032-1.782c.209-.755.615-1.4 1.262-1.86.318-.218.636-.426 1.01-.535.58-.175 1.173-.24 1.777-.131.778.153 1.426.525 1.985 1.082 2.085 2.089 4.169 4.167 6.265 6.244.329.328.362.328.702 0l6.341-6.32a3.41 3.41 0 011.174-.788c.647-.24 1.294-.36 1.985-.196.209.054.428.098.637.175a3.413 3.413 0 011.821 1.541 3.43 3.43 0 01.449 2.133c-.065.634-.263 1.203-.647 1.717a4.12 4.12 0 01-.362.415l-7.701 7.677c-.055.054-.11.12-.176.175-.23.208-.318.459-.318.776.011 2.537 0 5.063.011 7.6 0 .645-.132 1.247-.417 1.815a3.203 3.203 0 01-.91 1.083c-.692.547-1.481.842-2.37.787-1.415-.087-2.468-.765-3.094-2.056-.241-.503-.329-1.038-.329-1.585v-3.773z" fill="#D49A34"/></g><defs><clipPath id="clip0"><path fill="#fff" transform="translate(.31)" d="M0 0h150.33v150.33H0z"/></clipPath></defs></svg>