<svg width="137" height="151" viewBox="0 0 137 151" fill="none" xmlns="http://www.w3.org/2000/svg"><path d="M102.7 126.206c-3.1 3.3-6.6 5.9-10.3 8-22.9 12.4-55.3 2.3-60.7-7.8-5.3-9.9 1-45.6 11.1-55.3 2.2-2.1 6.9-3.7 12.6-4.6 11.8-1.9 27.6-1.4 33.6 1.6 10.2 5.1 24.9 46 13.7 58.1z" fill="#BA8867"/><path opacity=".2" d="M72.7 129.206c-.9.1-1.8.4-2.7.7v-1.8h.8c.4 0 .4-.6 0-.6H70c0-2.2-.1-4.3-.1-6.5 0-5.3-.1-10.6-.1-16 .2.1.4.3.7.4.3.1.6-.2.4-.4-.3-.3-.6-.5-1-.8v-.1c.8-.3 1.5-.5 2.3-.9.3-.1.1-.5-.2-.5-.7.1-1.4.4-2.1.6v-.7c0-4.8 0-9.6-.1-14.5.5-.1 1-.3 1.4-.5.2-.1.1-.4-.1-.4-.4 0-.8.1-1.3.2v-2.7c.5-.1 1-.1 1.4-.3.2-.1.2-.5-.1-.5-.4 0-.9 0-1.4.1 0-2.8-.1-5.6-.1-8.4.4 0 .7.1 1.1 0 .3 0 .3-.4.1-.5l-1.2-.3c-.1-3.1-.2-6.3-.4-9.4 0-.3-.4-.3-.4 0-.1 3.1-.2 6.2-.2 9.3-.7 0-1.4-.1-2-.1-.2 0-.3.3-.1.4.6.1 1.3.3 2 .4v8.8c-.5.1-.9.2-1.4.3-.2 0-.1.3 0 .3.4 0 .9-.1 1.3-.1v2.9c-.6.2-1.3.5-1.9.7-.2.1-.1.3.1.3l1.8-.3c.1 4.9.1 9.7.2 14.6v.5c-.7-.3-1.3-.6-2-.7-.2-.1-.3.2-.1.3.6.3 1.1.6 1.7.9-.6.3-1.1.6-1.7.9-.2.1 0 .3.1.3.7-.3 1.3-.5 2-.8 0 5.8.1 11.5.2 17.3v5.7c-.7 0-1.3.1-2 .1-.2 0-.3.4 0 .4.7.1 1.3.1 2 .2v2.2l-2.1.6c-.3.1-.2.5.1.4.6-.1 1.3-.2 2-.3 0 2.9.1 5.9.5 8.8 0 .3.4.2.5-.1.3-2.9.3-6 .3-9 1-.2 2-.5 2.8-1 .1 0 0-.4-.2-.4z" fill="#594639"/><path opacity=".2" d="M92.4 134.106c-22.9 12.4-55.3 2.3-60.7-7.8-5.3-9.9 1-45.6 11.1-55.3 2.2-2.1 6.9-3.7 12.6-4.6-5.3 6.4-8.3 14.2-10 22.4-1.7 8.2-2.9 17.5-.2 25.6 2.6 8.1 9.3 13.5 17 16.6 9.5 3.9 20 4.7 30.2 3.1z" fill="#594639"/><path d="M69 87.406c-.4.6-.7 1.2-1 1.8-.7 1.4-1.3 2.9-1.7 4.4-2.1 6.9-2.1 14.7-2.1 14.7l-6.3-6.2c.3-1.6.7-3.1 1.3-4.4 2.5-6.1 7.2-10.2 7.2-10.2h.5l2.1-.1z" fill="#C66"/><path d="M78.3 101.906l-6.2 6.3s-.2-8.4-2.6-15.5c-.4-1.2-.9-2.4-1.5-3.5-.3-.6-.7-1.2-1.1-1.8h2.6s2.3 1.9 4.6 5.1c1.8 2.5 3.5 5.8 4.2 9.4z" fill="#C66"/><path opacity=".2" d="M74.2 92.606c-1.6-.2-3.1-.1-4.7.2-.4-1.2-.9-2.4-1.5-3.5-.7 1.4-1.3 2.9-1.7 4.4-.3.1-.6.2-1 .4-2.2.9-4.4 2-6.2 3.6 2.5-6.1 7.2-10.2 7.2-10.2h3.1c.2-.1 2.5 1.9 4.8 5.1z" fill="#594639"/><path d="M66.4 87.506c-.5.7-1.4 1.4-2.5 2.1-2.7 1.6-6.4 2.7-8.1 1.9-2.3-1.1-.8-3.3-.7-4 .1-.7-6.8-9.6-1.9-11.4 1.6-.6 3.5.2 5.4 1.5.4.2.7.5 1.1.8 3.5 2.7 6.7 6.8 6.7 6.8v2.3z" fill="#C66"/><path opacity=".2" d="M66.1 85.306c-1.1-1-4.7-2.5-5.5-.3-.3.9.3 1.9.9 2.4 1 .7 2.2.7 3.3.3.2-.1.1-.4-.1-.3-.9.3-2 .2-2.7-.5-.6-.5-1-1.4-.4-1.9 1.1-.8 3.2.1 4.2.7.3.1.5-.2.3-.4z" fill="#594639"/><path opacity=".2" d="M63.8 89.506c-2.7 1.6-6.4 2.7-8.1 1.9-2.3-1.1-.8-3.3-.7-4 .1-.7-6.8-9.6-1.9-11.4 1.6-.6 3.5.2 5.4 1.5-1.3-.4-2.9-.2-3 1.8-.1 1.3 2.4 4.5 2.7 5.6.3 1.3-.5 2-.6 3.2-.3 4 4.1 2.3 6.2 1.4z" fill="#594639"/><path d="M84.3 79.306c-.5 3.2-3.5 7.4-3.4 7.9.1.7 1.6 2.9-.6 4-1.1.5-3.2.2-5.3-.5-2.2-.8-4.5-2.1-5.3-3.3v-2.4s8.2-10.9 13-9.2c1.5.6 1.9 1.9 1.6 3.5z" fill="#C66"/><path opacity=".2" d="M69.5 85.306c1.1-1 4.7-2.5 5.5-.3.3.9-.3 1.9-.9 2.4-1 .7-2.2.7-3.3.3-.2-.1-.1-.4.1-.3.9.3 2 .2 2.7-.5.6-.5 1-1.4.4-1.9-1.1-.8-3.2.1-4.2.7-.2.1-.4-.2-.3-.4z" fill="#594639"/><path opacity=".2" d="M84.3 79.306c0-.1-.1-.2-.2-.4-1.1-1.7-3-1.4-4.5-.6-1.5.8-2.8 2.1-3.8 3.5-2 2.7-2.9 6.3-.8 8.9-2.2-.8-4.5-2.1-5.3-3.3v-2.4s8.2-10.9 13-9.2c1.5.6 1.9 1.9 1.6 3.5z" fill="#594639"/><path d="M70.2 88.806c-.6.3-1 .3-1.4.2-.3-.1-.6-.2-.8-.2-.5 0-1.1.6-2.2 0s-2-5.6-.7-6.4c1.2-.8 2.4-.2 2.9-.2.2 0 .5-.1.9-.2.5-.1 1.2-.1 1.9.3 1.2.9.4 5.9-.6 6.5z" fill="#C66"/><path opacity=".2" d="M68.9 82.106v.2c-.1.1-.2.2-.3.2-1.2.5-1.9 1.8-1.8 3.2 0 .5.1 1.1.3 1.6.4 1 1 1 1.7 1.8l.2.2c-.3-.1-.6-.2-.8-.2-.5 0-1.1.6-2.2 0s-2-5.6-.7-6.4c1.2-.8 2.4-.2 2.9-.2-.1-.2.3-.3.7-.4z" fill="#594639"/><path d="M51.4 130.006c-.9 4.3-7.2 11-14 15.5-4 2.6-8.2 4.5-11.6 4.8-9.1.6-25.8-12.8-25.8-24.6.1-11.8 12.7-16.3 24-9.9 4.9 2.7 7.2-1.2 11.3-2.4.5-.1 1-.3 1.5-.3 5.1-.6 16.7 7 14.6 16.9z" fill="#BA8867"/><path d="M23.3 146.406c4.4-1-4.3-30.5-16.4-25.8-12.2 4.7 7.9 27.7 16.4 25.8z" fill="#E8BB9C"/><path opacity=".2" d="M51.2 126.906c-.2.1-.4.3-.6.4 0-.3 0-.6-.1-1 0-.2-.3-.2-.3 0 0 .4 0 .9-.1 1.3-.3-.1-.6-.2-.8-.2-.1 0-.1.1 0 .1l.6.3c-1.1.9-2.2 1.8-3.2 2.6l-.6-.6c-.1-.1-.4 0-.3.2.2.2.3.5.5.7-1.5 1.2-3 2.5-4.6 3.6l-2.1 1.5c-.2-.2-.4-.5-.6-.6-.2-.1-.4.1-.2.2.2.2.3.4.4.7-.3.2-.5.3-.8.5-.1-.3-.3-.6-.4-.8-.1-.2-.5 0-.3.2.2.3.3.6.3.9-1.9 1.3-3.9 2.5-5.8 3.8l-.1.1c0-2.3-.4-4.6-.9-6.9h.5c.2 0 .3-.3.1-.4-.1 0-.3 0-.4-.1.3-.3.7-.6.9-1 .1-.1-.1-.3-.2-.2-.4.3-.7.6-1.1.9-.5-2-1.2-3.9-2.1-5.7-1.6-3.4-4.1-7.1-7.2-9.7.3-.1.6-.3.8-.5.1-.1 0-.3-.1-.3-.4 0-.8.2-1.1.4-.2-.2-.5-.4-.7-.6.2-.2.4-.5.5-.8 0-.1-.1-.2-.2-.2-.3.2-.4.4-.6.7-2-1.3-4.2-2.2-6.6-2.2v.1c2.3.2 4.4 1.1 6.4 2.5-.2.3-.3.5-.5.8-.1.1.1.3.2.1.2-.2.4-.5.6-.7.2.1.4.3.6.5-.3.2-.5.4-.7.5-.2.1 0 .4.2.3.3-.2.6-.4.9-.5 3.3 2.8 5.9 6.9 7.4 10.3.8 1.7 1.3 3.3 1.8 5.1-.5 0-1 0-1.5-.1-.1 0-.2.2-.1.2.5.1.9.2 1.4.3-.4.4-.8.7-1.2 1.1-.1.1 0 .2.1.2.4-.3.9-.6 1.3-.9.8 3.4 1 7 .7 10.6h-.9c-.2 0-.2.3 0 .3h.9c-.1 1-.2 1.9-.3 2.9 0 .3.3.4.4.1.3-1 .4-2 .6-3h.1c.3 0 .3-.4 0-.4.1-1.3.2-2.5.2-3.8 0 .1.1.2.3.1 1.9-.9 3.9-2 5.8-3.2v.6c0 .2.4.2.4 0 .1-.3.1-.6.1-1 .3-.2.5-.4.8-.5 0 .2.1.4.1.6.1.2.4.3.5 0 .1-.3 0-.6-.1-1 2.4-1.6 4.6-3.3 6.8-5.2.1.2.3.3.4.5.2.2.7-.1.5-.4-.1-.2-.3-.4-.4-.5 1-.9 1.9-1.7 2.8-2.6v.4c0 .2.4.3.4.1.1-.2.1-.5.1-.7l.6.3c.2.1.3-.1.2-.3-.2-.2-.4-.3-.7-.4.2-.3.5-.5.7-.8 0 .3-.2.1-.4.2z" fill="#594639"/><path opacity=".2" d="M37.4 145.506c-4 2.6-8.2 4.5-11.6 4.8-9.1.6-25.8-12.8-25.8-24.6.1-11.8 12.7-16.3 24-9.9 4.9 2.7 7.2-1.2 11.3-2.4-.7.9-1.4 1.7-2.1 2.6-.9 1-1.7 1.7-3 1.9-1.4.2-2.9-.3-4.2-.5-1.8-.3-3.6-.5-5.5-.5-3.7.1-7.5 1-10.5 3.2-3.9 2.9-3.4 7.3-1.9 11.4 2.5 7 8.4 12.5 15.6 14.5 4.8 1.3 9.3.9 13.7-.5z" fill="#594639"/><path d="M136.6 125.706c0 5.9-4.1 12.2-9.4 16.9-5.3 4.8-11.8 8-16.3 7.7-9.1-.6-24.2-13.3-25.7-20.2-2-9.3 8.2-16.6 13.6-17h1c5.2.6 7.4 5.8 12.8 2.8 11.3-6.5 23.9-2 24 9.8z" fill="#BA8867"/><path d="M113.3 146.406c-4.4-1 4.3-30.5 16.4-25.8 12.2 4.7-7.9 27.7-16.4 25.8z" fill="#E8BB9C"/><path opacity=".2" d="M125.2 114.506c-1.3.3-2.6.8-3.8 1.3.2.1.4.1.6.3.1.1 0 .2-.1.2-.3 0-.6-.1-.8-.3 0 .5 0 .9-.2 1.3-.1.2-.3.1-.4 0v-1.1c-1.8 1-3.4 2.2-4.9 3.7 0 .1.1.1.1.2.1.2-.2.3-.3.1-1.9 1.9-3.5 4.1-4.8 6.4-1 1.8-2.2 3.9-3.1 6.2l.6.3c.1.1 0 .3-.1.3-.2-.1-.4-.1-.6-.2-.1.4-.3.7-.4 1.1.3 0 .5 0 .7.1.2 0 .2.3 0 .4-.3.1-.6.1-.9.1-1.5 4.6-1.7 9.4 1.4 13 .2.2-.1.5-.3.3-3.6-3.4-3.2-8.6-1.7-13.3h-.2c-.2 0-.2-.3 0-.3h.3c.1-.5.3-.9.5-1.4-.2-.1-.5-.2-.7-.3-.1 0 0-.3.1-.2.2.1.5.2.7.3.7-1.9 1.6-3.6 2.4-5.1 1.5-2.8 3.5-5.5 5.8-7.8-.1-.3-.3-.7-.4-1-.1-.1.1-.3.2-.1.1.3.3.6.5.8 1.6-1.4 3.3-2.7 5.2-3.6-.3-.1-.6-.3-.9-.4-.1 0 0-.2.1-.1.3.1.6.2.8.3 0-.4.1-.8.1-1.2 0-.2.3-.2.3 0v1.1c1.3-.6 2.6-1.1 4-1.4.3-.3.4-.1.2 0zm-20.5 28.9c.2.1 0 .5-.2.3-1.5-.9-3-1.8-4.5-2.9-.1.4-.1.8-.2 1.2 0 .1-.1.1-.1 0v-1.4l-.1-.1c-.3.2-.6.3-1 .5-.1 0-.1-.1-.1-.1.3-.2.5-.3.8-.5-3-2.1-5.9-4.6-8.5-7.3-.2.2-.3.5-.5.8-.1.1-.2 0-.2-.1.1-.3.3-.6.4-.9l-.8-.8c-.2.2-.3.4-.5.6-.1.1-.2 0-.2-.1.1-.2.2-.5.3-.8-1.5-1.7-3-3.6-4.2-5.5 0-.1.1-.1.1-.1 1.3 1.8 2.8 3.5 4.3 5.1.1-.3.3-.5.5-.7.2-.2.4 0 .4.2-.1.3-.3.6-.5.9l.7.7c.2-.4.4-.8.8-1 .1-.1.3 0 .2.2-.1.4-.5.8-.7 1.1 2.7 2.6 5.6 4.9 8.6 7.1.1-.5.2-.9.4-1.3.1-.1.3-.1.3.1 0 .4-.2.8-.3 1.2l.9-.6c.2-.1.5.2.3.3-.4.3-.7.5-1.1.7 1.8 1.1 3.2 2.1 4.7 3.2z" fill="#594639"/><path opacity=".2" d="M127.2 142.606c-5.3 4.8-11.8 8-16.3 7.7-9.1-.6-24.2-13.3-25.7-20.2-2-9.3 8.2-16.6 13.6-17-4.1 3.7-4.9 9.8-3.5 15.1 1.7 6.2 6.1 11.2 11.9 13.9 6.6 3 13.6 2.8 20 .5z" fill="#594639"/><path d="M54.3 114.506c.4 10.1-12.8 14.3-18.9 12.3-6.3-2-10.9-13.9-10.4-24.2.8-15.2 11.1-30.8 17.2-30.3.2 0 .4.1.5.2 2.8 1.6-1.5 14.4.3 18.8 1.8 4.7 10.1 13.8 11.3 21.9v1.3z" fill="#BA8867"/><path opacity=".2" d="M42.1 72.806c-2.3 2-4.1 4.4-5.6 7.1 0-.2-.1-.3-.1-.5-.1-.3-.5-.2-.5.1 0 .4.1.8.2 1.2v.1l-1.2-.3c-.1 0-.2.2-.1.2.4.1.7.3 1.1.4-1.9 3.7-3.1 7.8-3.8 11.9-.3 0-.6 0-1 .1-.2 0-.2.4 0 .4h.8c-.1.7-.2 1.4-.3 2-.4 0-.8.1-1.1.1-.3.1-.2.4.1.4h1c-.1.9-.2 1.9-.2 2.8-.3 5.7.6 11.5 2.8 16.8-.5.3-.9.7-1.3 1-.1.1 0 .3.2.2.4-.3.8-.6 1.3-.9l.6 1.5c-.4.4-.8.9-1 1.4-.1.2.2.4.3.3.4-.3.7-.7 1-1 1.6 3.1 3.6 6 6.1 8.6.2.2.5-.1.3-.3-2.3-2.8-4.2-5.8-5.7-8.9.4-.3.9-.7 1.3-1 .2-.2 0-.5-.3-.4-.5.2-.9.5-1.3.9-.2-.4-.4-.8-.5-1.2.3-.1.6-.3.8-.5.2-.1 0-.3-.2-.3-.3 0-.6.2-.8.3-2.1-5-3.1-10.4-2.8-16.2.1-.9.1-1.9.2-2.8.5 0 1 0 1.4-.2.2-.1.1-.3-.1-.4-.4-.1-.9-.1-1.3-.1.1-.6.2-1.2.3-1.9.3.1.6.1.9.2.2 0 .4-.3.2-.4-.3-.2-.7-.2-1-.3.7-3.9 1.8-7.6 3.5-11.1.1.3.3.5.4.7.1.1.3 0 .3-.1 0-.3-.1-.6-.2-.9.3.2.6.3.9.3.2 0 .2-.2.1-.3-.3-.3-.8-.5-1.2-.6 1.4-2.8 3.2-5.5 5.4-8 .4-.3.2-.5.1-.4z" fill="#594639"/><path opacity=".2" d="M54.3 114.506c.4 10.1-12.8 14.3-18.9 12.3-6.3-2-10.9-13.9-10.4-24.2.8-15.2 11.1-30.8 17.2-30.3.2 0 .4.1.5.2-.2.1-.5.1-.6-.1-4.8 2.8-7.7 7.8-9.6 12.9-2.2 5.9-3.1 12.3-2 18.5 1.1 6.2 4.3 12.1 10.8 14 4.7 1.4 9.6-.1 13-3.3z" fill="#594639"/><path d="M102 124.806c-1 .9-2.1 1.6-3.2 2-6.3 2-20.4-2.6-18.8-13.5 1.1-8.1 9.4-17.2 11.3-21.9 1.8-4.7-3-18.7.8-19 .5 0 1.1 0 1.7.2 6.1 2 14.8 16.2 15.5 30 .3 8.4-2.7 17.9-7.3 22.2z" fill="#BA8867"/><path opacity=".2" d="M105.6 100.006h-1.8c0-.4.1-.9.1-1.3.4.1.8.2 1.2.2.2 0 .3-.3.1-.4-.4-.2-.8-.2-1.3-.3v-1.6c0-4.8-1-9.6-2.9-14-.4-.9-.8-1.8-1.3-2.8.3-.1.5-.2.8-.4.2-.1.1-.6-.2-.5-.3.1-.6.3-.8.4-1.6-2.9-3.9-5.7-6.9-7-.2-.1-.3.2-.1.3 2.7 1.6 4.8 4.2 6.4 7-.4.2-.8.5-1.3.7-.1.1 0 .3.1.3.5-.2.9-.4 1.4-.6.8 1.5 1.5 3.1 2 4.6 1.5 4.3 2.1 8.8 2 13.3h-.4c-.1 0-.2.2-.1.2s.3.1.4.1c0 .5-.1 1.1-.1 1.6h-1.1c-.2 0-.2.3 0 .3.3 0 .7.1 1.1.1-.5 6.4-2.5 12.6-5.3 18.4-.2 0-.4-.1-.6-.1-.2 0-.3.2-.1.3.2 0 .3.1.5.1-.1.3-.3.6-.4.9l-.9-.3c-.2 0-.2.2-.1.2.3.1.5.2.8.4-.9 1.8-1.9 3.6-2.9 5.3-.1.2.2.4.3.2 1.1-1.7 2.1-3.4 3.1-5.2.7.4 1.3.7 2 1 .2.1.3-.2.2-.3-.6-.5-1.3-.8-2-1.1.2-.3.3-.6.5-.9.6.2 1.2.4 1.7.7.2.1.4-.3.2-.4-.5-.3-1.1-.5-1.7-.6 2.9-5.8 5-12 5.6-18.4.6 0 1.3 0 1.9-.1.2 0 .1-.3-.1-.3z" fill="#594639"/><path opacity=".2" d="M102 124.806c-1 .9-2.1 1.6-3.2 2-6.3 2-20.4-2.6-18.8-13.5 1.1-8.1 9.4-17.2 11.3-21.9 1.8-4.7-3-18.7.8-19 .5 0 1.1 0 1.7.2-.6 2.9.7 5.7 1.5 8.5.9 2.8 1.2 5.7 1 8.6-.4 6.2-3.3 11.3-5.4 16.9-2.3 6.2-2.1 13.2 4.4 16.6 2.1 1.1 4.4 1.6 6.7 1.6z" fill="#594639"/><path d="M49.9 22.606c-2.1 4.2-6.1 7.3-11.7 8.1-10.5 1.4-17.2-6.3-16.6-15.6.4-6.4 5.7-12.5 12.4-14.5 1.5-.4 3-.6 4.4-.6 6.5.2 11.7 5 12.9 10.7.9 4.1.4 8.4-1.4 11.9z" fill="#BA8867"/><path d="M29.4 16.306c-.4 5.6 3.6 10.2 9.9 9.3 6.2-.8 9-6.6 7.9-11.9-.9-4.2-5.3-7.5-10.3-6.1-4.2 1.3-7.3 4.9-7.5 8.7z" fill="#E8BB9C"/><path opacity=".2" d="M49.9 22.606c-2.1 4.2-6.1 7.3-11.7 8.1-10.5 1.4-17.2-6.3-16.6-15.6.4-6.4 5.7-12.5 12.4-14.5 1.5-.4 3-.6 4.4-.6-.2.2-.5.3-.7.1-7.2 4.3-10.6 13.4-5.9 20.9 2.3 3.7 7 5.1 11.2 4.9 3 0 4.9-1.6 6.9-3.3z" fill="#594639"/><path d="M110.4 26.406c-2.9 3.2-7.4 5-12.9 4.2-10.4-1.4-15.1-11.1-13.2-19.9 1.5-7 8.9-12.6 17.3-10.1.8.2 1.6.5 2.3.9 5.6 2.6 9.7 8 10.1 13.6.3 4.4-1 8.5-3.6 11.3z" fill="#BA8867"/><path d="M106.3 16.306c.4 5.6-3.6 10.2-9.9 9.3-6.2-.8-9-6.6-7.9-11.9.9-4.2 5.3-7.5 10.3-6.1 4.1 1.3 7.2 4.9 7.5 8.7z" fill="#E8BB9C"/><path opacity=".2" d="M110.4 26.406c-2.9 3.2-7.4 5-12.9 4.2-10.4-1.4-15.1-11.1-13.2-19.9 1.5-7 8.9-12.6 17.3-10.1.8.2 1.6.5 2.3.9-4 .3-7.7 2.2-9.8 5.8-2.2 3.6-2.2 8.1-.1 11.8 3.4 6.1 9.9 8 16.4 7.3z" fill="#594639"/><path d="M97.4 71.006c-3.3 3.6-7.6 6.2-12.4 7.8-1.6.5-3.2 1-4.8 1.3-9.7 2.1-20.8 1-29.8-2-8.8-2.9-15.8-7.5-17.8-12.6-5.5-14.1-.8-40.2 10.2-51 3.5-3.4 8.2-5.7 13.6-7 12.5-3 28.1-.5 36.7 7.2 8.7 7.8 18.9 40.2 4.3 56.3z" fill="#BA8867"/><path opacity=".2" d="M80.2 80.206c-9.7 2.1-20.8 1-29.8-2-8.8-2.9-15.8-7.5-17.8-12.6-5.5-14.1-.8-40.2 10.2-51 3.5-3.4 8.2-5.7 13.6-7-3.2 2.9-6 6.3-8.2 10.1-4.9 8.7-6.7 18.9-6.6 28.8 0 5.2.5 10.6 2.9 15.4.9 1.8 2 3.4 3.3 4.9 1.7 2 3.7 3.8 5.9 5.3 7.7 5.5 17.2 7.4 26.5 8.1z" fill="#594639"/><path opacity=".2" d="M69.7 68.006c-.4-.4-1-.7-1.6-1 .5-.2 1-.4 1.5-.7.3-.2.1-.7-.2-.6-.5.1-1 .3-1.5.5.1-2.7.1-5.3.2-8 .4 0 .8-.1 1.1-.2.3-.1.2-.5 0-.5-.4 0-.7 0-1.1.1v-.2c.2-5.6.3-11.3.4-16.9v-1.6c.5-.1.9-.3 1.4-.4.4-.1.3-.8-.2-.7-.4.1-.8.2-1.2.4v-1.5c.6.1 1.2.1 1.8 0 .3-.1.3-.5 0-.5-.6-.2-1.2-.3-1.8-.4.1-4.2.1-8.5.1-12.7h1.3c.4 0 .3-.6 0-.7-.4-.1-.9-.2-1.3-.2v-1.7c.4-.1.8-.1 1.2-.2.3-.1.3-.6-.1-.6h-1.1c-.1-4.2-.2-8.4-.6-12.5 0-.4-.6-.4-.6 0-.2 4.3-.2 8.6-.3 12.8-.6.2-1.3.4-1.8.6-.2.1-.1.3.1.3.6-.1 1.2-.2 1.8-.2v1.6c-.7.1-1.4.2-2 .3-.3 0-.3.5.1.5.6 0 1.3 0 1.9.1v12.5c-.6-.1-1.1-.3-1.7-.4-.2-.1-.4.2-.2.4.5.3 1.2.6 1.8.9v2.4c-.4.2-.7.4-1.1.6-.2.1 0 .5.2.4l.9-.3v1.1c-.1 5.5-.2 11-.3 16.4v1c-.3.1-.6.1-.9.2-.1 0-.1.3 0 .2h.9c-.1 2.6-.2 5.3-.3 7.9-.6-.2-1.1-.5-1.7-.7-.2-.1-.4.3-.2.4.6.3 1.2.6 1.8 1-.6.4-1.2.8-1.8 1.3-.1.1 0 .3.1.2.5-.3 1.1-.5 1.6-.7-.1 2.1-.1 4.1 0 6.1 0 .6.8.6.9 0 .3-2 .4-4.1.5-6.2.5.3 1 .6 1.6.8.4-.1.6-.5.4-.7z" fill="#594639"/><path d="M85.9 75.606c-.3.3-.6.6-.9.8-.2.1-.3.2-.5.4-.6.4-1.2.8-1.9 1.1-3.8 1.9-8.9 2.7-14 2.6-4.6-.1-9.3-.8-13.1-2.1-2-.7-3.8-1.6-5.1-2.6-1.6-1.2-2.6-2.5-2.9-4-.5-2.5-.3-5 .4-7.3 1.8-6 6.7-11.1 10.1-13 2.3-1.2 4.6-2 6.9-2.3 5.8-.8 11.4.8 15.2 3.9 5.6 4.3 10.9 17.6 5.8 22.5z" fill="#E8BB9C"/><path opacity=".2" d="M84.5 76.806c-.6.4-1.2.8-1.9 1.1-3.8 1.9-8.9 2.7-14 2.6-4.6-.1-9.3-.8-13.1-2.1-2-.7-3.8-1.6-5.1-2.6-1.6-1.2-2.6-2.5-2.9-4-.5-2.5-.3-5 .4-7.3 1.8-6 6.7-11.1 10.1-13 2.3-1.2 4.6-2 6.9-2.3-4.3 2.2-7.9 5.5-9.7 10-2.2 5.4-2 12.2 3.4 15.6 4.9 3.1 12.3 3.9 18 3.7 2.7-.2 5.3-.9 7.9-1.7z" fill="#594639"/><path d="M68.6 58.406c0-2.1-.1-4.3-.3-6.4 0-.2-.3-.2-.3 0-.2 2-.3 4-.3 6.1 0 1 .1 2.1-.2 3-.6 2.4-2.9.6-3.9-.4-.1-.1-.4 0-.3.2.8 1.6 3.3 3.5 4.7 1.4.8-1.1.6-2.7.6-3.9z" fill="#594639"/><path d="M67.7 58.406c0-2.1.1-4.3.3-6.4 0-.2.3-.2.3 0 .2 2 .3 4 .3 6.1 0 1-.1 2.1.2 3 .6 2.4 2.9.6 3.9-.4.1-.1.4 0 .3.2-.8 1.6-3.3 3.5-4.7 1.4-.7-1.1-.6-2.7-.6-3.9z" fill="#594639"/><path d="M68.2 56.106c-1.1 0-6.8-2.8-6.4-4.6.4-1.8 4.2-2.6 6.4-2.6 2.3 0 6.1.8 6.4 2.6.4 1.8-5.3 4.6-6.4 4.6zm-12.3-4.9c-.2 1.6-1.8 3.3-4 3.1-1.3-.1-2.5-1.1-2.9-2.4-.8-2.2.8-4.6 3.1-4.8 2.3-.2 4.1 1.8 3.8 4.1z" fill="#594639"/><path opacity=".5" d="M49 57.406c-.2 2.2-2.4 4.5-5.5 4.2-1.8-.2-3.3-1.5-3.9-3.2-1.1-3 1-6.2 4.2-6.5 3.1-.3 5.5 2.5 5.2 5.5zm48 0c-.2 2.2-2.4 4.5-5.5 4.2-1.8-.2-3.3-1.5-3.9-3.2-1.1-3 1-6.2 4.2-6.5 3.1-.3 5.5 2.5 5.2 5.5z" fill="#C66"/><path d="M54.1 38.006c-2.3-1.5-7.6.8-7.6 3.7 0 .3.3.6.6.5 1.2-.3 2.1-1.4 3.3-1.8 1.2-.5 2.5-.5 3.7-1 .6-.2.5-1.1 0-1.4zm25.7 13.2c.2 1.6 1.8 3.3 4 3.1 1.3-.1 2.4-1.1 2.9-2.4.8-2.2-.8-4.6-3.1-4.8-2.2-.2-4 1.8-3.8 4.1zm1.8-13.2c2.3-1.5 7.6.8 7.6 3.7 0 .3-.3.6-.6.5-1.2-.3-2.1-1.4-3.3-1.8-1.2-.5-2.5-.5-3.7-1-.6-.2-.4-1.1 0-1.4z" fill="#594639"/></svg>