<svg width="176" height="151" viewBox="0 0 176 151" fill="none" xmlns="http://www.w3.org/2000/svg"><path d="M64.938 104.258s-1.027 41.922-10.58 45.237c-7.105 2.448-10.657-15.553-18.158-11.131-.71.394-3.158 4.105-5.526 7.816-3.08 4.815-9.869 5.605-13.816 1.5-2.053-2.132-3.79-4.5-3.948-6.711-.631-6.158 5.448-9.79 5.448-9.79s-12.869 4.106-16.5-7.342c-1.816-5.842 11.447-10.105 11.447-10.105-1.737 1.184-14.684-5.527-13.184-13.422 1.5-7.895 14.605-10.579 14.605-10.579s-5.368-10.658-2.447-9.474c13.263 5.132 37.343 5.21 36.553 3.395-.079-.079 13.816 8.053 16.106 20.606z" fill="#CB9DD6"/><path d="M21.595 129.758s9.079-4.184 20.921-15.869C54.437 102.205 64.07 98.652 64.07 98.652s-3.237-6.237-7.184-2.605c-3.948 3.553-21.237 17.369-30.711 19.895-9 2.369-15.159 5.053-16.106 8.053-1.105 3.632 4.184 5.053 11.527 5.763zm13.895 6.711s9.158-14.369 18.474-23.843c9.316-9.395 9.869-11.684 9.869-11.684S48.359 113.1 39.12 123.363c-9.237 10.264-18.395 8.527-19.974 13.895-.316.948-.236 1.895.08 2.843 1.578 5.289 8.763 6.316 12.078 1.894l4.185-5.526zm14.21 5.605c3.948.948 8.921-3.394 8.211-12.71-.632-9.395 5.605-19.027 3-17.685-2.605 1.421-22.343 21.474-12.632 29.369l1.421 1.026z" fill="#AD75BA"/><path d="M15.516 119.969c14.448-4.816 28.974-11.922 40.106-22.5.553-.553-.079-1.027-.631-.632-12.632 8.921-24.948 17.132-39.396 22.816-.316.079-.316.395-.079.316z" fill="#935E9E"/><path d="M12.358 101.81c13.263 1.658 28.264-.473 38.448-9.868.632-.632-.158-1.106-.71-.711-11.527 7.658-23.685 10.263-37.343 10.027-.316 0-.79.552-.395.552zm98.292-55.738S111.676 4.15 121.229.834c7.105-2.447 10.658 15.553 18.158 11.132.711-.394 3.158-4.105 5.527-7.816 3.079-4.816 9.868-5.605 13.816-1.5 2.052 2.132 3.789 4.5 3.947 6.711.632 6.158-5.447 9.79-5.447 9.79s14.21 1.658 16.5 7.342c2.289 5.684-8.921 8.605-8.921 8.605s8.605 10.264 10.737 14.922c2.131 4.658-17.29 8.921-17.29 8.921s11.842 13.342 5.211 11.21c-10.737-3.473-34.817-1.973-34.817-1.973s-15.711-9.553-18-22.106z" fill="#CB9DD6"/><path d="M153.992 20.572s-9.079 4.184-20.921 15.869c-11.921 11.684-21.553 15.237-21.553 15.237s3.237 6.237 7.184 2.684c4.027-3.553 21.237-17.369 30.711-19.895 9.001-2.369 15.159-5.053 16.106-8.053 1.184-3.632-4.105-5.132-11.527-5.842zm10.816 14.605s-13.184 2.606-24.237 10.106c-11.053 7.5-22.737 14.21-22.737 14.21l2.921 1.658s22.974-13.184 31.974-12.395c9 .79 16.816 1.185 13.895-4.973-2.842-6.158-1.816-8.606-1.816-8.606zm-6.631 23.763s-9.158-1.736-18.948 1.027c-9.789 2.763-13.579 4.264-13.579 4.264s.947 3.236 2.605 2.526c1.658-.71 16.58-6.474 26.843-1.974 5.29 2.369 3.079-5.842 3.079-5.842z" fill="#AD75BA"/><path d="M160.072 30.361c-14.448 4.816-28.975 11.922-40.107 22.5-.552.554.079 1.027.632.633 12.632-8.922 24.948-17.132 39.396-22.817.315-.079.394-.395.079-.316z" fill="#935E9E"/><path d="M144.598 39.598c3.868-1.894 7.816-3.394 11.842-4.736 3.158-1.106 7.342-1.422 10.184-3.159 2.132-1.263 3.632-5.605.474-6.552-.947-.316-.947 1.342-.631 1.816 1.263 2.052-10.106 5.052-11.29 5.526-3.869 1.579-7.342 3.71-10.816 6-.316.237-.316 1.342.237 1.105z" fill="#DEACEA"/><path d="M64.938 40.704c19.895-13.58 46.343-9.395 59.132 9.316 12.711 18.71 6.948 44.843-12.947 58.422-19.895 13.579-46.422 9.316-59.133-9.316-12.79-18.71-6.948-44.843 12.948-58.422z" fill="#935E9E"/><path d="M125.886 8.256c-3.947-.948-8.921 3.394-8.21 12.71.631 9.395-5.606 19.027-3 17.685 2.605-1.421 22.342-21.474 12.631-29.369l-1.421-1.026z" fill="#CB9DD6"/><path d="M17.41 91.39s9.159 1.736 18.948-1.027c9.79-2.763 13.58-4.263 13.58-4.263s-.948-3.237-2.606-2.527-16.579 6.474-26.842 1.974c-5.29-2.369-3.08 5.842-3.08 5.842z" fill="#AD75BA"/><path d="M64.859 40.704c19.027-12.948 43.817-9.632 55.422 7.342 11.606 16.974 5.606 41.29-13.342 54.238-19.027 12.948-43.817 9.632-55.422-7.342-11.606-16.974-5.606-41.29 13.342-54.238z" fill="#2FED73"/><path d="M64.859 40.704c19.027-12.948 43.817-9.632 55.422 7.342 11.606 16.974 5.606 41.29-13.342 54.238-19.027 12.948-43.817 9.632-55.422-7.342-11.606-16.974-5.606-41.29 13.342-54.238z" fill="#CB9DD6"/><path d="M65.49 44.414c14.764-10.105 40.265-9 49.265 4.264 9 13.263-21.08 4.5-35.922 14.605-14.763 10.106-16.5 38.764-25.58 25.58-8.92-13.264-2.526-34.343 12.238-44.449z" fill="#E2B5ED"/><path d="M117.202 61.625c.632 10.421-1.421 21.159-8.526 29.132-6.158 6.869-19.185 14.764-28.659 12.79-.553-.158-.632.947-.158 1.184 10.185 4.579 24.474-4.894 30.79-12.79 6.869-8.526 9.158-19.816 7.343-30.474-.158-.631-.869-.395-.79.158z" fill="#DEACEA"/><path d="M79.702 99.837c-5.764 2.131-11.527 1.105-12.869-2.448-1.342-3.474 2.29-8.132 8.053-10.263 5.763-2.132 11.526-1.106 12.868 2.447 1.343 3.553-2.289 8.132-8.052 10.264z" fill="#DEACEA"/><path d="M148.071 24.282c-11.052 4.659-16.026 17.685-27.948 20.843-1.026.237-.71 2.684.474 2.447 12.237-3.079 17.211-16.105 27.632-22.105.474-.316.395-1.421-.158-1.184zm10.659 34.185c-9.948-3.316-21.08-1.42-30.554 2.605-1.421.632-.868 4.185.711 3.474 9.868-4.263 19.184-4.658 29.685-4.42.71 0 .71-1.5.158-1.659zM40.464 129.048c6.079-8.132 12.868-15.711 21.158-21.553.632-.395.474-2.369-.474-2.29-4.5.474-7.816 5.685-10.579 8.842-3.868 4.343-7.816 9.08-10.737 14.132-.237.395.158 1.5.632.869zm9.71-3.869c2.448-3 5.053-5.842 7.816-8.605 2.764-2.764 5.527-4.658 8.764-6.79.79-.474.868-2.368-.237-2.447-3.395-.237-6.553 3.789-8.605 6-3.158 3.316-5.843 6.868-8.29 10.737-.237.395.079 1.658.552 1.105zm72.475-106.897c.553 8.843-2.289 15.553-6.237 23.211-.315.632.158 2.921 1.027 1.895 5.526-6.71 6.947-16.737 6.158-25.106-.079-.868-.948-.868-.948 0zM12.832 114.916c6.474-2.842 13.026-5.605 19.421-8.606 5.29-2.447 13.895-9.079 19.659-8.21.947.158.868-1.974.158-2.29-4.737-1.895-12.08 3.948-16.185 6-7.816 3.79-15.553 7.895-23.29 12.001-.395.158-.237 1.342.237 1.105z" fill="#935E9E"/><path d="M124.465 38.888c5.369-3.158 9.237-7.5 12.79-12.553 3.395-4.816 11.368-20.606 18.632-18.632 1.105.316 1.184-1.658.552-2.132-5.605-4.42-11.526 6-14.21 9.948-5.369 8.053-9.948 16.58-18.08 22.263-.394.237-.158 1.343.316 1.106z" fill="#E9CEEF"/><path d="M117.123 32.256c.711-2.842 1.5-5.605 2.132-8.448.473-2.052.552-7.026 1.894-8.526 5.606-6.869 7.737 2.605 10.974 4.421 5.29 2.921 11.448-1.026 13.106-6.237.237-.71-.395-2.29-1.184-1.263-1.816 2.526-3.869 5.21-7.343 5.448-4.5.236-5.684-3.316-7.658-6.474-1.342-2.132-3.158-4.106-5.842-3.158-2.289.868-3.079 3.473-3.632 5.605-1.579 6-2.131 12.316-3.079 18.474 0 .474.553.79.632.158zM38.332 92.968c-5.368 1.342-10.895 1.974-16.421 1.579-2.922-.237-6.474-1.263-9.159.316-3.473 1.974-3.71 7.184-.394 9.395.868.552 1.184-1.027.71-1.579-.236-4.421 1.185-6.395 4.106-6 .947.079 1.973.158 2.92.236 2.211.158 4.343.316 6.475.158 4.184-.236 8.052-1.263 11.92-2.842.633-.237.475-1.42-.157-1.263z" fill="#E9CEEF"/></svg>