<svg width="80" height="151" viewBox="0 0 80 151" fill="none" xmlns="http://www.w3.org/2000/svg"><path d="M51.437 112.735s8.652 41.415 21.119 37.301c12.492-4.114-6.259-40.742-6.259-40.742l-14.86 3.441z" fill="#EDA958"/><path d="M71.26 150.31c9.973-6.109-7.456-40.169-7.456-40.169l-12.317 2.843c.673 3.166 8.527 38.299 19.772 37.326z" fill="#FFB56C"/><path d="M59.241 112.934c-22.266 7.979-35.556-5.461-41.989-18.277-6.408-12.816-34.908-79.24 1.546-91.233C55.252-8.57 69.464 49.826 76.047 69.797c6.557 19.972 2.493 36.229-16.806 43.136z" fill="#FF9C9C"/><path d="M52.085 114.729s24.76-5.485 20.072-28.15c-4.688-22.665-15.185-69.716-34.11-78.443-15.509-7.131-30.145 2.27-30.145 2.27s14.76-18.776 37.8-5.885c20.895 11.694 30.544 62.56 33.137 73.805 2.593 11.245.3 20.221-3.94 25.033-9.674 10.946-22.814 11.37-22.814 11.37z" fill="#FF7676"/><path d="M52.085 114.729s24.76-5.485 20.072-28.15c-4.688-22.665-15.185-69.716-34.11-78.443-15.509-7.131-30.145 2.27-30.145 2.27s14.76-18.776 37.8-5.885c20.895 11.694 30.544 62.56 33.137 73.805 2.593 11.245.3 20.221-3.94 25.033-9.674 10.946-22.814 11.37-22.814 11.37z" fill="#F88"/><path d="M18.2 22.523l-6.184 2.045c-.623.2-1.297-.125-1.496-.748l-.05-.15c-.2-.623.125-1.297.748-1.496l6.184-2.045c.623-.199 1.296.125 1.496.748l.05.15c.199.623-.125 1.297-.748 1.496z" fill="#BF81C6"/><path d="M14.933 14.644a1.652 1.652 0 011.023-2.095c.847-.274 1.77.2 2.069 1.073.3.872-.174 1.795-1.022 2.094-.873.3-1.796-.2-2.07-1.072z" fill="#FF7676"/><path d="M15.98 22.174l-3.79 1.247a.364.364 0 01-.473-.25.364.364 0 01.249-.473l3.79-1.247c.2-.075.424.05.474.25a.364.364 0 01-.25.473z" fill="#D28DDB"/><path d="M15.457 15.043a1.37 1.37 0 010-1.92 1.37 1.37 0 011.92 0 1.37 1.37 0 010 1.92c-.549.548-1.397.548-1.92 0z" fill="#FFBD76"/><path d="M15.407 14.27a.848.848 0 01.549-1.072c.448-.15.922.1 1.072.548.15.45-.1.923-.549 1.072a.891.891 0 01-1.072-.548z" fill="#FFD4B0"/><path d="M34.182 14.046c.823-.4 1.82-.05 2.195.773.374.822 0 1.795-.823 2.169-.823.399-1.82.05-2.194-.773-.374-.823 0-1.795.822-2.17z" fill="#FF7676"/><path d="M33.858 14.619c.474-.574 1.322-.673 1.895-.224.574.473.673 1.321.224 1.895-.473.573-1.321.673-1.894.224-.599-.474-.699-1.322-.225-1.895z" fill="#FFBD76"/><path d="M34.631 14.47a.838.838 0 011.122.398c.2.424.025.923-.399 1.123a.838.838 0 01-1.122-.4.86.86 0 01.4-1.121z" fill="#FFD4B0"/><path d="M4.436 34.616l1.471-6.333a1.19 1.19 0 011.421-.898l.15.025a1.19 1.19 0 01.897 1.421l-1.47 6.334a1.19 1.19 0 01-1.422.897l-.15-.025a1.19 1.19 0 01-.897-1.421z" fill="#13B3B7"/><path d="M12.864 35.913a1.624 1.624 0 011.246 1.945c-.199.872-1.097 1.42-1.994 1.196a1.623 1.623 0 01-1.247-1.945 1.643 1.643 0 011.995-1.196z" fill="#FF7676"/><path d="M5.882 32.896l.898-3.89c.05-.2.25-.324.449-.274.2.05.324.249.299.448l-.898 3.89c-.05.2-.25.324-.449.274-.224-.024-.349-.249-.299-.448z" fill="#26C6C6"/><path d="M12.24 36.162a1.345 1.345 0 11.624 2.618 1.345 1.345 0 11-.624-2.618z" fill="#FFBD76"/><path d="M12.963 36.511c.45.1.748.549.624 1.022a.826.826 0 01-1.022.624.826.826 0 01-.624-1.022c.1-.45.549-.724 1.022-.624z" fill="#FFEA80"/><path d="M26.503 29.605l-.25 6.507a1.192 1.192 0 01-1.221 1.147h-.15a1.192 1.192 0 01-1.147-1.221l.25-6.508a1.192 1.192 0 011.221-1.147h.15a1.192 1.192 0 011.147 1.222z" fill="#F95050"/><path d="M17.975 29.953c-.922-.024-1.645-.797-1.596-1.67.025-.898.798-1.596 1.72-1.546.924.025 1.646.798 1.597 1.67-.025.873-.798 1.571-1.72 1.546z" fill="#FF7676"/><path d="M25.405 31.574l-.15 3.99c0 .2-.174.374-.398.374-.2 0-.374-.175-.374-.4l.15-3.989c0-.2.199-.374.399-.374.224 0 .398.175.373.4z" fill="#FF886C"/><path d="M18.549 29.58a1.38 1.38 0 01-1.796-.674c-.324-.673 0-1.47.674-1.795.673-.3 1.47 0 1.795.673.3.699 0 1.496-.673 1.796z" fill="#FFBD76"/><path d="M17.776 29.355a.857.857 0 01-.823-.873.857.857 0 01.873-.823.857.857 0 01.822.873c-.024.474-.398.848-.872.823z" fill="#FFD4B0"/><path d="M42.585 18.26l5.236 3.889a1.22 1.22 0 01.25 1.67l-.1.125a1.22 1.22 0 01-1.67.25l-5.212-3.89a1.22 1.22 0 01-.25-1.67l.1-.125c.35-.549 1.123-.649 1.646-.25z" fill="#13B3B7"/><path d="M38.022 25.44a1.644 1.644 0 01-2.294.374c-.723-.523-.848-1.57-.299-2.294a1.644 1.644 0 012.294-.374c.698.549.848 1.571.3 2.294z" fill="#FF7676"/><path d="M43.583 20.254l3.191 2.394c.175.125.2.374.075.548-.125.175-.374.2-.549.075l-3.191-2.393c-.175-.125-.2-.375-.075-.549.125-.175.374-.2.549-.075z" fill="#26C6C6"/><path d="M38.047 24.792a1.36 1.36 0 01-1.57 1.097 1.36 1.36 0 01-1.098-1.57 1.36 1.36 0 011.571-1.098 1.36 1.36 0 011.097 1.571z" fill="#FFBD76"/><path d="M37.424 25.29a.836.836 0 01-1.172.175.836.836 0 01-.175-1.172.836.836 0 011.172-.174.836.836 0 01.175 1.172z" fill="#FFD4B0"/><path d="M48.395 40.151l-6.433-1.022a1.207 1.207 0 01-.998-1.371l.025-.15c.1-.648.723-1.097 1.372-.997l6.433 1.022c.648.1 1.097.723.997 1.371l-.025.15c-.125.673-.723 1.122-1.371.997z" fill="#F95050"/><path d="M49.093 31.674a1.67 1.67 0 011.87-1.396c.873.15 1.471.997 1.346 1.895a1.67 1.67 0 01-1.87 1.396 1.641 1.641 0 01-1.346-1.895z" fill="#FF7676"/><path d="M46.575 38.855l-3.94-.623c-.2-.025-.349-.225-.324-.45.025-.199.224-.348.449-.323l3.94.623c.199.025.348.224.323.449-.05.2-.249.349-.448.324z" fill="#FF886C"/><path d="M49.367 32.272a1.353 1.353 0 01.873-1.695 1.353 1.353 0 011.695.872 1.353 1.353 0 01-.872 1.696 1.343 1.343 0 01-1.696-.873z" fill="#FFBD76"/><path d="M49.691 31.55a.85.85 0 01.973-.699.85.85 0 01.698.973.85.85 0 01-.973.698c-.448-.1-.773-.524-.698-.973z" fill="#FFD4B0"/><path d="M30.392 35.115l5.386-3.665a1.17 1.17 0 011.646.324l.1.124a1.17 1.17 0 01-.325 1.646l-5.385 3.665a1.17 1.17 0 01-1.646-.324l-.1-.124c-.349-.524-.2-1.272.324-1.646z" fill="#FFEA80"/><path d="M35.703 41.797c.524.773.324 1.795-.399 2.294-.748.499-1.77.3-2.269-.474-.523-.773-.324-1.795.4-2.294.747-.498 1.745-.299 2.268.474z" fill="#FF7676"/><path d="M32.611 34.84l3.292-2.243c.174-.125.424-.075.523.1.125.174.075.423-.1.523l-3.29 2.244c-.175.125-.425.075-.524-.1-.125-.174-.075-.399.1-.523z" fill="#FFE2DE"/><path d="M35.08 41.548a1.38 1.38 0 01.524 1.845 1.38 1.38 0 01-1.845.523 1.38 1.38 0 01-.524-1.845 1.38 1.38 0 011.845-.523z" fill="#FFBD76"/><path d="M35.354 42.296c.275.374.15.922-.224 1.172-.374.249-.923.15-1.172-.225-.25-.374-.15-.922.224-1.172.374-.25.923-.15 1.172.225z" fill="#FFD4B0"/><path d="M7.777 47.083l5.386-3.665a1.17 1.17 0 011.646.324l.1.125a1.17 1.17 0 01-.325 1.645l-5.386 3.666a1.17 1.17 0 01-1.645-.325l-.1-.124c-.374-.524-.224-1.272.324-1.646z" fill="#FFE2DE"/><path d="M13.088 53.765c.524.773.324 1.796-.399 2.294-.748.499-1.77.3-2.269-.473-.524-.748-.324-1.796.399-2.294.723-.499 1.745-.3 2.269.473z" fill="#FF7676"/><path d="M9.996 46.809l3.292-2.244c.174-.125.424-.075.523.1.125.174.075.424-.1.523l-3.29 2.244c-.175.125-.425.075-.524-.1-.125-.174-.075-.398.1-.523z" fill="#FFF6F5"/><path d="M12.465 53.516a1.38 1.38 0 01.524 1.845 1.38 1.38 0 01-1.846.524 1.38 1.38 0 01-.523-1.845 1.345 1.345 0 011.845-.524z" fill="#FFBD76"/><path d="M12.714 54.264c.274.374.15.923-.224 1.172-.374.25-.923.15-1.172-.224-.25-.374-.15-.923.224-1.172.4-.25.923-.15 1.172.224z" fill="#FFD4B0"/><path d="M29.819 46.51l1.022 6.433c.1.648-.349 1.247-.997 1.371l-.15.025a1.207 1.207 0 01-1.371-.997L27.3 46.909c-.1-.649.35-1.272.998-1.372l.15-.025c.673-.1 1.271.35 1.37.998zm-8.279 1.97a1.641 1.641 0 01-1.894-1.347c-.15-.873.473-1.72 1.396-1.87a1.641 1.641 0 011.895 1.346 1.67 1.67 0 01-1.396 1.87z" fill="#FF7676"/><path d="M29.57 46.61l.997 6.307c.075.524-.274 1.048-.823 1.123-.523.074-1.047-.275-1.122-.823l-.997-6.309c-.075-.523.274-1.047.823-1.122.523-.074 1.047.3 1.122.823z" fill="#13B3B7"/><path d="M29.146 48.63l.623 3.939c.025.2-.1.399-.324.448a.407.407 0 01-.449-.324l-.623-3.94a.406.406 0 01.324-.448.413.413 0 01.449.324z" fill="#26C6C6"/><path d="M22.015 48.006a1.365 1.365 0 01-1.896-.324 1.363 1.363 0 01.325-1.895 1.363 1.363 0 011.895.324c.424.623.274 1.471-.324 1.895z" fill="#FFBD76"/><path d="M21.217 47.93a.863.863 0 01-.973-.697.863.863 0 01.698-.973.863.863 0 01.973.698.832.832 0 01-.698.973z" fill="#FFD4B0"/><path d="M37.972 51.82l5.386-3.665a1.17 1.17 0 011.646.324l.1.125a1.17 1.17 0 01-.325 1.646l-5.386 3.665a1.17 1.17 0 01-1.645-.324l-.1-.125c-.374-.523-.224-1.272.324-1.645z" fill="#FFE2DE"/><path d="M43.258 58.478c.524.773.324 1.795-.399 2.294-.748.499-1.77.3-2.269-.474-.523-.773-.324-1.795.4-2.294a1.67 1.67 0 012.268.474z" fill="#FF7676"/><path d="M42.635 58.254a1.38 1.38 0 01.524 1.845 1.38 1.38 0 01-1.845.523 1.38 1.38 0 01-.524-1.845c.374-.648 1.197-.898 1.845-.523z" fill="#FFBD76"/><path d="M42.91 59.002c.274.374.149.922-.225 1.172-.374.249-.923.15-1.172-.225-.25-.374-.15-.922.224-1.172.4-.274.923-.174 1.172.225z" fill="#FFD4B0"/><path d="M59.815 54.04l-2.02 6.184c-.2.623-.873.972-1.496.772l-.15-.05a1.195 1.195 0 01-.773-1.495l2.02-6.184c.2-.623.873-.973 1.496-.773l.15.05c.623.2.972.873.773 1.496z" fill="#BF81C6"/><path d="M51.537 52.045a1.626 1.626 0 01-1.073-2.044c.275-.848 1.197-1.322 2.095-1.023a1.626 1.626 0 011.072 2.045c-.3.847-1.222 1.296-2.094 1.022z" fill="#FF7676"/><path d="M58.244 55.635l-1.222 3.79c-.075.2-.274.325-.474.25-.2-.075-.324-.275-.25-.474l1.223-3.79c.074-.2.274-.3.473-.25.2.05.3.275.25.474z" fill="#D28DDB"/><path d="M52.16 51.845a1.371 1.371 0 01-1.546-1.146 1.371 1.371 0 011.147-1.546 1.37 1.37 0 011.546 1.147 1.37 1.37 0 01-1.147 1.545z" fill="#FFBD76"/><path d="M51.487 51.422a.848.848 0 01-.549-1.073.848.848 0 011.072-.548c.45.15.698.623.549 1.072a.848.848 0 01-1.072.549z" fill="#FFD4B0"/><path d="M18.374 59.475l6.034 2.469c.599.25.898.947.648 1.546l-.05.15a1.193 1.193 0 01-1.545.648l-6.034-2.469a1.194 1.194 0 01-.649-1.546l.05-.15c.25-.598.948-.897 1.546-.648z" fill="#EA50CD"/><path d="M15.78 67.579c-.348.848-1.296 1.272-2.118.922a1.642 1.642 0 01-.873-2.144c.349-.848 1.296-1.272 2.12-.922.822.324 1.221 1.296.872 2.144z" fill="#FF7676"/><path d="M19.845 61.146l3.69 1.496c.2.075.3.3.2.499-.075.2-.3.299-.499.2l-3.69-1.497c-.2-.075-.3-.3-.2-.498a.398.398 0 01.5-.2z" fill="#FF88E9"/><path d="M15.632 66.93a1.345 1.345 0 01-1.247 1.447 1.345 1.345 0 01-1.446-1.247 1.345 1.345 0 011.246-1.446c.723-.05 1.372.499 1.447 1.247z" fill="#FFBD76"/><path d="M15.158 67.579c-.175.424-.673.648-1.097.474-.424-.175-.649-.674-.474-1.097.174-.424.673-.649 1.097-.474a.847.847 0 01.474 1.097z" fill="#FFD4B0"/><path d="M66.272 78.001l-4.662 4.563a1.212 1.212 0 01-1.696-.025l-.1-.124c-.448-.474-.448-1.222.026-1.67l4.662-4.564c.474-.449 1.222-.449 1.67.025l.1.125a1.16 1.16 0 010 1.67z" fill="#F95050"/><path d="M59.864 72.391c-.648-.648-.648-1.695 0-2.319.649-.623 1.671-.598 2.32.05.648.649.648 1.696 0 2.32-.649.623-1.671.598-2.32-.05z" fill="#FF7676"/><path d="M64.128 78.675l-2.842 2.792a.391.391 0 01-.549 0 .391.391 0 010-.548l2.843-2.793a.39.39 0 01.548 0c.175.15.15.4 0 .549z" fill="#FF886C"/><path d="M60.513 72.516a1.388 1.388 0 01-.848-1.72 1.388 1.388 0 011.72-.848 1.388 1.388 0 01.848 1.72 1.388 1.388 0 01-1.72.848z" fill="#FFBD76"/><path d="M60.114 71.818a.858.858 0 010-1.197.836.836 0 011.197.025.858.858 0 010 1.197c-.325.324-.873.299-1.197-.025z" fill="#FFD4B0"/><path d="M59.39 96.577l-3.64-5.385a1.17 1.17 0 01.325-1.646l.124-.1a1.17 1.17 0 011.646.324l3.64 5.386a1.17 1.17 0 01-.324 1.646l-.125.1c-.523.373-1.271.224-1.645-.325z" fill="#13B3B7"/><path d="M66.073 91.291c.773-.523 1.795-.324 2.294.4.499.747.3 1.77-.474 2.268-.773.524-1.795.324-2.294-.399-.498-.748-.274-1.77.474-2.269z" fill="#FF7676"/><path d="M59.116 94.358l-2.244-3.316c-.124-.175-.075-.424.1-.524.175-.124.424-.075.524.1l2.244 3.316c.124.175.075.424-.1.524-.15.124-.399.075-.524-.1z" fill="#26C6C6"/><path d="M65.849 91.915a1.38 1.38 0 011.845-.524 1.38 1.38 0 01.523 1.845 1.38 1.38 0 01-1.845.524 1.336 1.336 0 01-.523-1.846z" fill="#FFBD76"/><path d="M66.597 91.64c.374-.249.922-.15 1.172.225.249.399.15.922-.225 1.172-.374.249-.922.15-1.172-.225-.274-.399-.174-.922.225-1.172z" fill="#FFD4B0"/><path d="M19.222 81.542l-4.738-4.463a1.182 1.182 0 01-.05-1.67l.1-.125a1.182 1.182 0 011.67-.05l4.738 4.463a1.18 1.18 0 01.05 1.67l-.1.125a1.182 1.182 0 01-1.67.05z" fill="#FFEA80"/><path d="M24.583 74.91c.623-.674 1.67-.724 2.319-.1.648.623.673 1.645.024 2.319-.623.673-1.67.723-2.318.1-.649-.599-.649-1.646-.025-2.32z" fill="#FF7676"/><path d="M18.449 79.423l-2.893-2.743a.418.418 0 01-.024-.549c.15-.15.399-.15.548-.025l2.893 2.743c.15.15.15.4.024.549-.15.174-.374.174-.548.025z" fill="#FFE2DE"/><path d="M24.483 75.583a1.347 1.347 0 011.695-.898c.724.225 1.122.973.898 1.696a1.347 1.347 0 01-1.695.897c-.699-.224-1.122-.972-.898-1.695z" fill="#FFBD76"/><path d="M25.156 75.159c.324-.35.848-.35 1.197-.025.35.324.35.848.025 1.197-.324.349-.848.349-1.197.025-.324-.325-.349-.873-.025-1.197z" fill="#FFD4B0"/><path d="M30.367 89.546l1.87-6.234c.2-.623.848-.997 1.471-.798l.15.05c.623.2.998.848.798 1.471l-1.87 6.234c-.2.623-.848.997-1.471.798l-.15-.05c-.623-.175-.972-.848-.798-1.471z" fill="#13B3B7"/><path d="M38.695 91.366c.873.274 1.397 1.172 1.122 2.02-.249.848-1.172 1.346-2.07 1.072-.872-.274-1.395-1.172-1.121-2.02a1.662 1.662 0 012.07-1.072z" fill="#FF7676"/><path d="M31.913 87.925l1.147-3.815c.05-.2.275-.324.474-.25.2.05.324.275.25.475l-1.148 3.815a.364.364 0 01-.473.249c-.2-.05-.3-.275-.25-.474z" fill="#26C6C6"/><path d="M38.072 91.566c.723-.125 1.446.373 1.571 1.097.125.723-.374 1.446-1.097 1.57-.723.125-1.446-.374-1.571-1.097a1.368 1.368 0 011.097-1.57z" fill="#FFBD76"/><path d="M38.745 91.99a.845.845 0 01-.474 1.62.845.845 0 01-.573-1.047.826.826 0 011.047-.574z" fill="#FFD4B0"/><path d="M50.788 107l-6.507.324c-.649.025-1.222-.474-1.247-1.122v-.15c-.025-.648.474-1.222 1.122-1.246l6.508-.325c.648-.025 1.222.474 1.246 1.122v.15A1.162 1.162 0 0150.79 107z" fill="#EA50CD"/><path d="M49.716 98.547c-.05-.923.649-1.695 1.521-1.745.898-.05 1.646.648 1.696 1.57.05.923-.648 1.696-1.521 1.746-.898.075-1.646-.648-1.696-1.571z" fill="#FF7676"/><path d="M48.744 106.102l-3.99.2c-.2 0-.398-.15-.398-.374 0-.2.15-.399.373-.399l3.99-.2c.2 0 .399.15.399.374 0 .2-.15.399-.374.399z" fill="#FF88E9"/><path d="M50.115 99.096a1.349 1.349 0 01.499-1.846 1.349 1.349 0 011.845.5c.374.647.15 1.47-.499 1.844a1.349 1.349 0 01-1.845-.498z" fill="#FFBD76"/><path d="M50.29 98.298a.842.842 0 01.798-.898.842.842 0 01.897.798.842.842 0 01-.797.898.842.842 0 01-.898-.798z" fill="#FFD4B0"/><path d="M27.4 97.076l-4.812-4.388c-.474-.45-.524-1.197-.075-1.671l.1-.125c.449-.474 1.197-.523 1.67-.075l4.813 4.389c.474.449.523 1.197.075 1.67l-.1.125c-.424.499-1.172.524-1.67.075z" fill="#F95050"/><path d="M36.426 99.943c.923-.05 1.696.624 1.77 1.496a1.641 1.641 0 01-1.545 1.721c-.923.05-1.72-.624-1.77-1.496a1.624 1.624 0 011.545-1.72z" fill="#FF7676"/><path d="M26.627 94.981l-2.942-2.692a.391.391 0 01-.025-.55.391.391 0 01.549-.024l2.942 2.693a.39.39 0 01.025.548.37.37 0 01-.549.025z" fill="#FF886C"/><path d="M35.903 100.342a1.364 1.364 0 011.845.474c.374.648.15 1.471-.474 1.845a1.363 1.363 0 01-1.845-.474 1.347 1.347 0 01.474-1.845z" fill="#FFBD76"/><path d="M36.7 100.492a.842.842 0 01.898.798.841.841 0 01-.798.897.842.842 0 01-.897-.797.843.843 0 01.798-.898z" fill="#FFEA80"/><path d="M29.77 67.704l5.385-3.666a1.17 1.17 0 011.645.324l.1.125a1.17 1.17 0 01-.324 1.646l-5.386 3.665a1.17 1.17 0 01-1.645-.324l-.1-.125c-.35-.548-.224-1.296.324-1.645z" fill="#F95050"/><path d="M35.08 74.361c.524.773.324 1.795-.399 2.294-.748.499-1.77.3-2.269-.474-.524-.773-.324-1.795.399-2.294.723-.498 1.745-.274 2.269.474z" fill="#FF7676"/><path d="M31.988 67.404l3.291-2.244c.175-.124.424-.075.524.1.125.175.075.424-.1.524l-3.291 2.244c-.175.124-.424.075-.524-.1-.124-.15-.075-.399.1-.524z" fill="#FF886C"/><path d="M34.457 74.112a1.38 1.38 0 01.523 1.845 1.38 1.38 0 01-1.845.523 1.38 1.38 0 01-.523-1.845 1.38 1.38 0 011.845-.523z" fill="#FFBD76"/><path d="M34.731 74.885c.25.373.15.922-.224 1.171-.374.25-.923.15-1.172-.224-.25-.374-.15-.922.224-1.172.374-.274.898-.174 1.172.225z" fill="#FFD4B0"/><path d="M53.057 68.526l.948 6.433c.1.649-.35 1.247-.998 1.347l-.15.025c-.647.1-1.246-.35-1.346-.998l-.947-6.433c-.1-.648.349-1.246.997-1.346l.15-.025c.623-.125 1.247.35 1.346.997z" fill="#EA50CD"/><path d="M44.73 70.397c-.898.124-1.746-.474-1.87-1.372a1.633 1.633 0 011.42-1.845c.898-.125 1.746.474 1.87 1.371.125.873-.498 1.696-1.42 1.846z" fill="#FF7676"/><path d="M52.334 70.646l.574 3.94a.387.387 0 01-.324.423.387.387 0 01-.424-.324l-.574-3.94a.387.387 0 01.325-.423c.199-.05.398.1.423.324z" fill="#FF88E9"/><path d="M45.228 69.923a1.348 1.348 0 01-1.87-.324 1.348 1.348 0 01.324-1.87 1.348 1.348 0 011.87.324 1.348 1.348 0 01-.324 1.87z" fill="#FFBD76"/><path d="M44.43 69.848a.813.813 0 01-.947-.723.813.813 0 01.723-.948.813.813 0 01.947.723.877.877 0 01-.723.948zm5.386 12.792l-.374 6.507c-.025.648-.599 1.147-1.247 1.122h-.15c-.648-.025-1.146-.598-1.121-1.247l.374-6.508c.024-.648.598-1.146 1.246-1.121h.15a1.148 1.148 0 011.122 1.246z" fill="#FFEA80"/><path d="M41.314 82.814c-.923-.05-1.621-.823-1.571-1.72.05-.898.823-1.572 1.745-1.522.923.05 1.62.823 1.571 1.72-.05.873-.823 1.572-1.745 1.522z" fill="#FF7676"/><path d="M45.702 4.52c-17.43-9.748-30.12-1.37-35.282 3.292.324.274.648.524.998.798 5.26-2.319 15.733-5.46 26.604-.449 3.516 1.62 6.732 4.563 9.675 8.428 1.77-.873 3.017-2.12 3.615-3.69.449-1.222.474-2.544.1-3.94-1.77-1.795-3.69-3.291-5.71-4.438z" fill="#FF9C9C"/><path d="M48.719 84.56l-.224 3.989c0 .199-.2.374-.4.374-.199 0-.373-.2-.373-.4l.224-3.989c0-.2.2-.374.399-.374.2 0 .374.2.374.4z" fill="#FFE2DE"/><path d="M41.887 82.44c-.673.299-1.471-.025-1.77-.698-.3-.674.025-1.472.698-1.77.673-.3 1.471.024 1.77.697.3.699-.025 1.496-.698 1.77z" fill="#FFBD76"/><path d="M41.114 82.215a.842.842 0 01-.798-.897.842.842 0 01.898-.798.842.842 0 01.798.897.842.842 0 01-.898.798z" fill="#FFD4B0"/><path d="M64.328 113.383c2.917 8.901 7.256 17.454 9.824 26.43-1.047-9.176-6.408-21.393-8.976-26.829-.275.125-.549.249-.848.399zm-.448.224c-.724.349-1.447.673-2.17.998 3.44 10.746 9.3 20.894 12.193 31.79.25-.922.374-1.969.399-3.091-2.469-10.198-7.281-19.673-10.423-29.697zm-2.594 1.172c-.648.274-1.297.549-1.945.798 1.87 6.134 4.638 11.893 7.281 17.778 1.57 3.491 3.042 7.031 4.114 10.697.524 1.82.998 3.665 1.421 5.51a5.613 5.613 0 001.247-1.845c-3.067-11.295-8.727-21.668-12.118-32.938zm-6.807 2.269c-.648.125-1.297.249-1.97.324 2.07 8.253 7.007 25.184 13.714 30.968-1.57-3.515-3.167-7.031-4.663-10.572-2.842-6.707-5.236-13.639-7.081-20.72z" fill="#FFC994"/><path d="M58.843 115.777l-1.721.598c1.995 6.258 4.588 12.367 6.907 18.501 1.995 5.236 3.865 10.472 6.308 15.434.3.025.599.025.923 0 .174-.099.324-.199.473-.324-.498-2.094-.972-4.164-1.595-6.233-1.147-3.84-2.743-7.506-4.389-11.146-2.493-5.485-5.236-10.996-6.906-16.83zm-2.145.723c-.573.174-1.147.324-1.745.448 1.62 6.059 3.515 12.019 5.86 17.853 1.32 3.291 2.792 6.558 4.238 9.799.499 1.122.997 2.643 1.62 4.164.898.698 1.846 1.172 2.793 1.421-2.144-4.388-3.64-9.2-5.336-13.688-2.468-6.633-5.36-13.215-7.43-19.997z" fill="#FFC994"/><path d="M21.416 3.399c-.449 1.695 5.161-.3 11.968 1.047 6.234 1.247 7.93 1.82 8.179.499.25-1.322-4.339-3.142-9.25-3.74-3.118-.4-10.349.074-10.897 2.194z" fill="#FBB"/></svg>